<svg width="139" height="18" viewBox="0 0 139 18" fill="none" xmlns="http://www.w3.org/2000/svg">
<path d="M4.99352 15.2431C5.61631 15.2431 6.05682 15.1823 6.31505 15.0608C6.57327 14.9393 6.70239 14.7039 6.70239 14.3544C6.70239 14.0811 6.5353 13.8455 6.20112 13.6481C5.86695 13.4354 5.35809 13.2 4.67454 12.9418C4.14289 12.7443 3.65681 12.5392 3.21631 12.3266C2.79099 12.1139 2.42643 11.8633 2.12263 11.5747C1.81884 11.2709 1.58339 10.9139 1.4163 10.5038C1.24921 10.0936 1.16567 9.60004 1.16567 9.02276C1.16567 7.89871 1.58339 7.01008 2.41884 6.35697C3.25428 5.70376 4.40111 5.37721 5.85935 5.37721C6.58847 5.37721 7.2872 5.44557 7.95556 5.58223C8.62395 5.70376 9.15553 5.8405 9.55046 5.99236L8.95807 8.63548C8.56314 8.49874 8.13024 8.37721 7.65935 8.27088C7.20366 8.16454 6.6872 8.11138 6.10998 8.11138C5.04669 8.11138 4.51504 8.40761 4.51504 9C4.51504 9.13674 4.53783 9.25819 4.58339 9.36452C4.62897 9.47086 4.72011 9.57719 4.85682 9.68352C4.99352 9.77465 5.1758 9.88098 5.40365 10.0025C5.64669 10.1089 5.95049 10.2304 6.31505 10.3671C7.05935 10.6405 7.67454 10.9139 8.16062 11.1874C8.64672 11.4456 9.02644 11.7342 9.29983 12.0532C9.58851 12.357 9.78597 12.6987 9.89231 13.0784C10.0138 13.4583 10.0746 13.8987 10.0746 14.4001C10.0746 15.5848 9.62647 16.481 8.7302 17.0886C7.84923 17.6962 6.59606 18 4.97074 18C3.90745 18 3.01884 17.9089 2.30491 17.7266C1.60617 17.5443 1.1201 17.3924 0.84668 17.2709L1.4163 14.5139C1.99351 14.7418 2.58592 14.9241 3.19352 15.0608C3.80111 15.1823 4.40111 15.2431 4.99352 15.2431ZM12.4977 2.71141L15.8927 2.16454V5.69621H19.9712V8.5215H15.8927V12.7367C15.8927 13.4506 16.0142 14.0202 16.2573 14.4456C16.5154 14.8709 17.0243 15.0836 17.7839 15.0836C18.1484 15.0836 18.5206 15.0532 18.9003 14.9924C19.2952 14.9164 19.6522 14.8177 19.9712 14.6962L20.4497 17.3392C20.0396 17.5064 19.5838 17.6507 19.0826 17.7721C18.5813 17.8937 17.9661 17.9545 17.237 17.9545C16.3104 17.9545 15.5433 17.8329 14.9357 17.5899C14.3281 17.3317 13.8421 16.9823 13.4775 16.5418C13.113 16.0861 12.8547 15.5392 12.7028 14.9013C12.5661 14.2633 12.4977 13.5569 12.4977 12.7823V2.71141ZM21.7212 11.7798C21.7212 10.7164 21.8807 9.78985 22.1996 9C22.5338 8.19494 22.9667 7.52654 23.4984 6.99496C24.03 6.4633 24.6376 6.06073 25.3212 5.78733C26.0199 5.51394 26.7338 5.37721 27.4629 5.37721C29.1643 5.37721 30.5085 5.90123 31.4959 6.94935C32.4833 7.98228 32.9769 9.50882 32.9769 11.5291C32.9769 11.7266 32.9693 11.9468 32.9541 12.1899C32.9389 12.4177 32.9237 12.6228 32.9085 12.8051H25.2073C25.2832 13.5038 25.6098 14.0582 26.187 14.4683C26.7642 14.8785 27.539 15.0836 28.5111 15.0836C29.1339 15.0836 29.7415 15.0304 30.3338 14.9241C30.9414 14.8025 31.4351 14.6582 31.8149 14.4912L32.2706 17.2481C32.0883 17.3392 31.8453 17.4304 31.5415 17.5215C31.2377 17.6127 30.8959 17.6886 30.5161 17.7494C30.1516 17.8253 29.7567 17.8861 29.3313 17.9316C28.906 17.9772 28.4807 18 28.0553 18C26.9769 18 26.0351 17.8405 25.23 17.5215C24.4402 17.2026 23.7794 16.7696 23.2478 16.2228C22.7313 15.6608 22.3439 15 22.0857 14.2406C21.8427 13.481 21.7212 12.6608 21.7212 11.7798ZM29.6958 10.481C29.6807 10.1924 29.6276 9.91139 29.5363 9.638C29.4604 9.36452 29.3313 9.12154 29.1491 8.90887C28.9819 8.69621 28.7617 8.5215 28.4883 8.38477C28.23 8.24811 27.9035 8.17974 27.5085 8.17974C27.1288 8.17974 26.8022 8.24811 26.5288 8.38477C26.2554 8.5063 26.0275 8.67344 25.8453 8.88611C25.6629 9.09878 25.5186 9.34941 25.4123 9.638C25.3212 9.91139 25.2528 10.1924 25.2073 10.481H29.6958ZM40.1765 15.3114C40.5107 15.3114 40.8297 15.3038 41.1335 15.2886C41.4373 15.2734 41.6804 15.2506 41.8627 15.2202V12.6456C41.7259 12.6152 41.5209 12.5848 41.2474 12.5544C40.974 12.524 40.7234 12.5089 40.4955 12.5089C40.1765 12.5089 39.8727 12.5317 39.5841 12.5772C39.3107 12.6076 39.0677 12.676 38.855 12.7823C38.6424 12.8886 38.4753 13.0329 38.3537 13.2152C38.2323 13.3975 38.1715 13.6253 38.1715 13.8987C38.1715 14.4304 38.3462 14.8025 38.6955 15.0152C39.0601 15.2127 39.5538 15.3114 40.1765 15.3114ZM39.9031 5.37721C40.9057 5.37721 41.7411 5.4911 42.4095 5.71897C43.0778 5.94684 43.6095 6.27339 44.0044 6.69873C44.4146 7.12406 44.7031 7.64052 44.8702 8.24811C45.0373 8.85571 45.1208 9.53167 45.1208 10.2759V17.3392C44.6348 17.4456 43.9588 17.5671 43.093 17.7038C42.2272 17.8557 41.1791 17.9316 39.9487 17.9316C39.174 17.9316 38.4677 17.8633 37.8297 17.7266C37.2069 17.5899 36.6677 17.3696 36.212 17.0659C35.7563 16.7469 35.4069 16.3367 35.1639 15.8355C34.9209 15.3342 34.7993 14.719 34.7993 13.9899C34.7993 13.2911 34.9361 12.6987 35.2094 12.2127C35.498 11.7266 35.8779 11.3392 36.3487 11.0506C36.8196 10.7621 37.3589 10.5569 37.9665 10.4354C38.5741 10.2988 39.2044 10.2304 39.8576 10.2304C40.2981 10.2304 40.6854 10.2532 41.0196 10.2988C41.3689 10.3291 41.65 10.3747 41.8627 10.4354V10.1165C41.8627 9.53923 41.6879 9.07593 41.3386 8.72661C40.9892 8.37721 40.3816 8.2025 39.5158 8.2025C38.9386 8.2025 38.3689 8.24811 37.807 8.33924C37.2449 8.41517 36.7588 8.52915 36.3487 8.681L35.9158 5.94683C36.1133 5.88602 36.3563 5.8253 36.6449 5.76457C36.9487 5.68856 37.2753 5.62783 37.6246 5.58223C37.974 5.5215 38.3385 5.47598 38.7184 5.44557C39.1133 5.39997 39.5082 5.37721 39.9031 5.37721ZM52.9756 17.9089C51.9883 17.8937 51.1832 17.7873 50.5604 17.5899C49.9528 17.3924 49.4668 17.119 49.1021 16.7696C48.7528 16.4051 48.5097 15.9722 48.3731 15.4709C48.2516 14.9545 48.1908 14.3772 48.1908 13.7392V0.546784L51.5858 0V13.0557C51.5858 13.3595 51.6085 13.633 51.654 13.8759C51.6997 14.119 51.7832 14.324 51.9047 14.4912C52.0414 14.6582 52.2313 14.795 52.4743 14.9013C52.7174 15.0076 53.0439 15.0759 53.4541 15.1063L52.9756 17.9089ZM55.2861 2.71141L58.681 2.16454V5.69621H62.7596V8.5215H58.681V12.7367C58.681 13.4506 58.8026 14.0202 59.0457 14.4456C59.3038 14.8709 59.8127 15.0836 60.5722 15.0836C60.9368 15.0836 61.309 15.0532 61.6887 14.9924C62.0836 14.9164 62.4406 14.8177 62.7596 14.6962L63.2381 17.3392C62.8279 17.5064 62.3722 17.6507 61.871 17.7721C61.3697 17.8937 60.7545 17.9545 60.0254 17.9545C59.0988 17.9545 58.3317 17.8329 57.7241 17.5899C57.1165 17.3317 56.6304 16.9823 56.2659 16.5418C55.9014 16.0861 55.6431 15.5392 55.4912 14.9013C55.3545 14.2633 55.2861 13.5569 55.2861 12.7823V2.71141ZM65.5242 17.681V0.546784L68.9192 0V5.74173C69.1469 5.6658 69.4356 5.59743 69.7849 5.53671C70.1496 5.46078 70.4989 5.42282 70.8331 5.42282C71.8052 5.42282 72.6102 5.55947 73.2482 5.83294C73.9014 6.09113 74.4179 6.4633 74.7976 6.94935C75.1926 7.43541 75.466 8.01268 75.6179 8.681C75.7849 9.34941 75.8685 10.0937 75.8685 10.9139V17.681H72.4736V11.324C72.4736 10.2304 72.3293 9.45574 72.0407 9C71.7672 8.54426 71.2508 8.31648 70.4913 8.31648C70.1875 8.31648 69.8989 8.3468 69.6254 8.40761C69.3673 8.45313 69.1318 8.5063 68.9192 8.56711V17.681H65.5242ZM86.8935 5.90123C87.0301 6.66076 87.2044 7.47337 87.4174 8.33924C87.645 9.18991 87.8881 10.0633 88.1466 10.9595C88.4198 11.8405 88.7006 12.7139 88.9892 13.5798C89.2933 14.4456 89.5973 15.2583 89.9014 16.0177C90.1591 15.4405 90.4322 14.7418 90.7216 13.9216C91.0102 13.0861 91.2988 12.2127 91.5874 11.3013C91.876 10.3747 92.1414 9.44809 92.3845 8.5215C92.643 7.57971 92.8552 6.70628 93.0227 5.90123H94.4811C93.934 8.21015 93.3336 10.3215 92.6808 12.2354C92.0427 14.1493 91.3366 15.9646 90.5619 17.681H89.1722C88.9437 17.1494 88.7006 16.5569 88.443 15.9038C88.1999 15.2354 87.9414 14.5291 87.6682 13.7848C87.4097 13.0253 87.152 12.2354 86.8935 11.4152C86.6504 10.5797 86.4151 9.72913 86.1875 8.86326C85.959 9.72913 85.7162 10.5797 85.4579 11.4152C85.2149 12.2354 84.9566 13.0253 84.6833 13.7848C84.425 14.5291 84.1668 15.2354 83.9085 15.9038C83.6655 16.5569 83.4301 17.1494 83.2022 17.681H81.7896C81.0149 15.9646 80.3009 14.1493 79.6478 12.2354C79.0098 10.3215 78.4174 8.21015 77.8706 5.90123H79.4427C79.6098 6.70628 79.8149 7.57971 80.0579 8.5215C80.3161 9.44809 80.5895 10.3747 80.8782 11.3013C81.1668 12.2127 81.4554 13.0784 81.744 13.8987C82.0478 14.719 82.3288 15.4178 82.587 15.995C82.8757 15.2354 83.1643 14.4228 83.4529 13.557C83.7567 12.6912 84.0377 11.8177 84.2959 10.9367C84.5542 10.0557 84.7971 9.18991 85.025 8.33924C85.2529 7.47337 85.4503 6.66076 85.6174 5.90123H86.8935ZM100.983 5.67344C101.469 5.67344 101.925 5.71141 102.35 5.78733C102.791 5.86326 103.095 5.93919 103.262 6.0152L102.965 7.29111C102.844 7.23039 102.594 7.16958 102.214 7.10885C101.849 7.03292 101.363 6.99496 100.755 6.99496C100.117 6.99496 99.6011 7.04048 99.206 7.13161C98.8263 7.22274 98.5755 7.29876 98.4544 7.35948V17.681H96.9728V6.44809C97.3533 6.28104 97.8772 6.11389 98.5455 5.94683C99.2137 5.76457 100.026 5.67344 100.983 5.67344ZM106.977 17.681H105.495V5.90123H106.977V17.681ZM107.318 2.3468C107.318 2.6962 107.212 2.97724 106.999 3.18982C106.787 3.38737 106.528 3.48606 106.224 3.48606C105.921 3.48606 105.662 3.38737 105.449 3.18982C105.237 2.97724 105.131 2.6962 105.131 2.3468C105.131 1.99748 105.237 1.724 105.449 1.52654C105.662 1.31388 105.921 1.20754 106.224 1.20754C106.528 1.20754 106.787 1.31388 106.999 1.52654C107.212 1.724 107.318 1.99748 107.318 2.3468ZM112.292 5.90123H116.985V7.15446H112.292V13.4203C112.292 14.0886 112.346 14.6355 112.451 15.0608C112.573 15.4709 112.74 15.7899 112.953 16.0177C113.166 16.2456 113.423 16.3975 113.728 16.4735C114.032 16.5494 114.366 16.5874 114.73 16.5874C115.353 16.5874 115.854 16.519 116.234 16.3823C116.613 16.2304 116.91 16.0937 117.123 15.9722L117.487 17.2026C117.274 17.3392 116.902 17.4987 116.37 17.681C115.839 17.8481 115.262 17.9316 114.639 17.9316C113.91 17.9316 113.295 17.8405 112.793 17.6582C112.307 17.4608 111.913 17.1722 111.609 16.7925C111.32 16.3974 111.115 15.9114 110.994 15.3342C110.872 14.757 110.811 14.0734 110.811 13.2836V2.43793L112.292 2.16454V5.90123ZM119.007 11.7798C119.007 10.7469 119.152 9.85067 119.44 9.09113C119.744 8.31648 120.132 7.67084 120.602 7.15446C121.088 6.638 121.635 6.25819 122.243 6.0152C122.865 5.75693 123.504 5.62784 124.156 5.62784C125.599 5.62784 126.747 6.09869 127.597 7.04049C128.463 7.98228 128.896 9.43289 128.896 11.3924C128.896 11.5139 128.888 11.6355 128.873 11.7569C128.873 11.8785 128.866 11.9924 128.85 12.0988H120.579C120.625 13.5417 120.982 14.6507 121.65 15.4253C122.318 16.2 123.382 16.5874 124.84 16.5874C125.645 16.5874 126.283 16.5114 126.754 16.3595C127.225 16.2076 127.567 16.0785 127.779 15.9722L128.052 17.2481C127.84 17.3696 127.437 17.5139 126.845 17.681C126.268 17.8481 125.585 17.9316 124.795 17.9316C123.761 17.9316 122.881 17.7798 122.152 17.476C121.423 17.1722 120.822 16.7469 120.351 16.2C119.881 15.6532 119.539 15.0076 119.326 14.2633C119.114 13.5038 119.007 12.676 119.007 11.7798ZM127.37 10.8455C127.339 9.61515 127.05 8.65824 126.504 7.97472C125.957 7.29112 125.182 6.94935 124.18 6.94935C123.648 6.94935 123.17 7.05569 122.744 7.26836C122.334 7.48102 121.97 7.76961 121.65 8.13413C121.346 8.48354 121.103 8.89367 120.921 9.36452C120.754 9.83546 120.656 10.3291 120.625 10.8455H127.37ZM136.206 5.67344C136.692 5.67344 137.148 5.71141 137.573 5.78733C138.014 5.86326 138.318 5.93919 138.485 6.0152L138.188 7.29111C138.067 7.23039 137.817 7.16958 137.437 7.10885C137.072 7.03292 136.587 6.99496 135.978 6.99496C135.34 6.99496 134.824 7.04048 134.429 7.13161C134.049 7.22274 133.799 7.29876 133.677 7.35948V17.681H132.197V6.44809C132.576 6.28104 133.1 6.11389 133.768 5.94683C134.437 5.76457 135.249 5.67344 136.206 5.67344Z" fill="black"/>
</svg>
